<svg xmlns="http://www.w3.org/2000/svg" viewBox="0 0 800 600" fill="none">
  <rect width="800" height="600" fill="#F7FAFC"/>
  <circle cx="400" cy="300" r="120" fill="#17B8A6" opacity="0.1"/>
  <path d="M200 450L250 400L300 420L350 350L400 380L450 300L500 320L550 250L600 280" stroke="#17B8A6" stroke-width="5" stroke-linecap="round" stroke-linejoin="round" fill="none"/>
  <circle cx="200" cy="450" r="8" fill="#17B8A6"/>
  <circle cx="250" cy="400" r="8" fill="#17B8A6"/>
  <circle cx="300" cy="420" r="8" fill="#17B8A6"/>
  <circle cx="350" cy="350" r="8" fill="#17B8A6"/>
  <circle cx="400" cy="380" r="8" fill="#17B8A6"/>
  <circle cx="450" cy="300" r="8" fill="#17B8A6"/>
  <circle cx="500" cy="320" r="8" fill="#17B8A6"/>
  <circle cx="550" cy="250" r="8" fill="#17B8A6"/>
  <circle cx="600" cy="280" r="8" fill="#17B8A6"/>
  <rect x="180" y="470" width="440" height="4" rx="2" fill="#CBD5E0"/>
  <rect x="180" y="470" width="4" height="30" rx="2" fill="#CBD5E0"/>
  <path d="M620 270L650 250L680 270" stroke="#17B8A6" stroke-width="4" stroke-linecap="round" stroke-linejoin="round" fill="none"/>
</svg>

