<svg xmlns="http://www.w3.org/2000/svg" viewBox="0 0 800 600" fill="none">
  <rect width="800" height="600" fill="#F7FAFC"/>
  <circle cx="250" cy="250" r="60" fill="#17B8A6" opacity="0.2"/>
  <circle cx="250" cy="230" r="35" fill="#17B8A6"/>
  <path d="M200 320Q200 280 250 280T300 320V380H200V320Z" fill="#17B8A6"/>
  <circle cx="400" cy="250" r="60" fill="#17B8A6" opacity="0.2"/>
  <circle cx="400" cy="230" r="35" fill="#17B8A6"/>
  <path d="M350 320Q350 280 400 280T450 320V380H350V320Z" fill="#17B8A6"/>
  <circle cx="550" cy="250" r="60" fill="#17B8A6" opacity="0.2"/>
  <circle cx="550" cy="230" r="35" fill="#17B8A6"/>
  <path d="M500 320Q500 280 550 280T600 320V380H500V320Z" fill="#17B8A6"/>
  <rect x="200" y="400" width="400" height="100" rx="10" fill="white" stroke="#17B8A6" stroke-width="2"/>
  <rect x="220" y="420" width="100" height="60" rx="5" fill="#17B8A6" opacity="0.1"/>
  <rect x="340" y="420" width="120" height="60" rx="5" fill="#17B8A6" opacity="0.1"/>
  <rect x="480" y="420" width="100" height="60" rx="5" fill="#17B8A6" opacity="0.1"/>
</svg>

